<?xml version="1.0" encoding="UTF-8" standalone="no"?>
<!-- Created with Inkscape (http://www.inkscape.org/) -->

<svg
   width="320"
   height="320"
   viewBox="0 0 84.666665 84.666669"
   version="1.1"
   id="svg8"
   inkscape:version="1.1.2 (b8e25be833, 2022-02-05)"
   sodipodi:docname="favicon.svg"
   inkscape:export-filename="C:\Users\josep\Documents\GitHub\spipr_joseph\favicon-150x150.png"
   inkscape:export-xdpi="287.08658"
   inkscape:export-ydpi="287.08658"
   xmlns:inkscape="http://www.inkscape.org/namespaces/inkscape"
   xmlns:sodipodi="http://sodipodi.sourceforge.net/DTD/sodipodi-0.dtd"
   xmlns="http://www.w3.org/2000/svg"
   xmlns:svg="http://www.w3.org/2000/svg"
   xmlns:rdf="http://www.w3.org/1999/02/22-rdf-syntax-ns#"
   xmlns:cc="http://creativecommons.org/ns#"
   xmlns:dc="http://purl.org/dc/elements/1.1/">
  <defs
     id="defs2" />
  <sodipodi:namedview
     id="base"
     pagecolor="#ffffff"
     bordercolor="#666666"
     borderopacity="1.0"
     inkscape:pageopacity="1"
     inkscape:pageshadow="2"
     inkscape:zoom="1"
     inkscape:cx="63"
     inkscape:cy="159.5"
     inkscape:document-units="mm"
     inkscape:current-layer="text817"
     showgrid="false"
     inkscape:window-width="2560"
     inkscape:window-height="1351"
     inkscape:window-x="-9"
     inkscape:window-y="-9"
     inkscape:window-maximized="1"
     units="px"
     inkscape:pagecheckerboard="0" />
  <metadata
     id="metadata5">
    <rdf:RDF>
      <cc:Work
         rdf:about="">
        <dc:format>image/svg+xml</dc:format>
        <dc:type
           rdf:resource="http://purl.org/dc/dcmitype/StillImage" />
      </cc:Work>
    </rdf:RDF>
  </metadata>
  <g
     inkscape:label="Calque 1"
     inkscape:groupmode="layer"
     id="layer1"
     transform="translate(0,-212.33332)">
    <g
       aria-label="J"
       style="font-style:normal;font-weight:normal;font-size:37.66650391px;line-height:1.25;font-family:sans-serif;letter-spacing:0px;word-spacing:0px;fill:#000000;fill-opacity:1;stroke:none;stroke-width:0.94166249"
       id="text817">
      <path
         d="m 81.109114,217.19602 q 0.451998,0.27119 0.180799,0.81359 -0.180799,0.5424 -0.723197,1.1752 -0.451998,0.54239 -1.084795,1.08479 -0.632797,0.452 -0.903996,0.6328 -1.898392,0.5424 -3.344786,1.53679 -1.446393,0.9944 -2.711988,2.89279 -1.175195,1.89839 -2.350389,4.97198 -1.084796,3.07358 -2.259991,7.77436 -2.983187,11.57115 -7.322368,20.61111 0.994396,-0.2712 1.717593,-0.54239 0.813596,-0.2712 1.175195,-0.5424 0.361598,0 0.451998,0.2712 0.0904,0.1808 -0.0904,0.3616 -0.632797,0.45199 -1.627193,0.81359 -0.903996,0.3616 -2.079191,0.6328 -4.067982,8.31676 -9.03996,14.46394 -4.881579,6.05677 -10.395955,10.03435 -5.514376,4.06798 -11.480749,5.96638 -5.966374,1.98879 -11.932748,1.98879 -6.87037,0 -10.4863544,-2.80239 -3.5255846,-2.71199 -3.5255846,-8.40716 0,-3.07359 1.6271929,-6.50878 1.6271929,-3.43518 4.9719782,-6.50877 3.3447859,-3.07358 8.3167639,-5.51437 5.062378,-2.53119 11.842348,-3.70639 0.451998,0 0.451998,0.3616 0,0.3616 -0.451998,0.5424 -10.938352,2.07919 -16.362328,7.23197 -5.4239768,5.15278 -5.4239768,11.66155 0,5.51437 3.0735868,8.31676 3.073586,2.80239 9.03996,2.80239 5.333577,0 10.215156,-1.62719 4.971978,-1.6272 9.401559,-5.15278 4.42958,-3.52559 8.316763,-9.13036 3.977583,-5.60478 7.412768,-13.55994 -4.70078,-0.1808 -7.683967,-3.34479 -2.983187,-3.25438 -2.983187,-8.67836 0,-5.60478 2.983187,-11.11915 2.983187,-5.51438 7.955166,-9.94396 4.971978,-4.42958 11.480749,-7.14157 6.599172,-2.71198 13.650341,-2.71198 z m -18.803118,22.8711 q 1.988791,-7.77437 5.333577,-12.11355 3.344785,-4.33918 7.051169,-6.41837 -6.237573,0.72319 -11.48075,3.34478 -5.243177,2.62159 -9.039961,6.32797 -3.796783,3.61599 -5.875974,7.95517 -2.079191,4.33918 -2.079191,8.58796 0,5.24318 2.621589,8.22637 2.621588,2.98318 7.231968,3.25438 3.344786,-8.22636 6.237573,-19.16471 z"
         style="font-style:normal;font-variant:normal;font-weight:bold;font-stretch:normal;font-size:90.3996048px;font-family:Tangerine;-inkscape-font-specification:'Tangerine Bold';text-align:start;text-anchor:start;fill:#36a786;fill-opacity:1;stroke-width:0.94166249"
         id="path819" />
    </g>
  </g>
</svg>
