<?xml version="1.0" encoding="UTF-8" standalone="no"?>
<!-- Created with Inkscape (http://www.inkscape.org/) -->

<svg
   width="891.97571"
   height="320"
   viewBox="0 0 236.0019 84.666664"
   version="1.1"
   id="svg8"
   inkscape:version="1.1.2 (b8e25be833, 2022-02-05)"
   sodipodi:docname="Joseph_Larmarange_site.svg"
   inkscape:export-filename="C:\Users\Larmarange\Documents\weblocal\Joseph_Larmarange.png"
   inkscape:export-xdpi="287.08658"
   inkscape:export-ydpi="287.08658"
   xmlns:inkscape="http://www.inkscape.org/namespaces/inkscape"
   xmlns:sodipodi="http://sodipodi.sourceforge.net/DTD/sodipodi-0.dtd"
   xmlns="http://www.w3.org/2000/svg"
   xmlns:svg="http://www.w3.org/2000/svg"
   xmlns:rdf="http://www.w3.org/1999/02/22-rdf-syntax-ns#"
   xmlns:cc="http://creativecommons.org/ns#"
   xmlns:dc="http://purl.org/dc/elements/1.1/">
  <defs
     id="defs2" />
  <sodipodi:namedview
     id="base"
     pagecolor="#ffffff"
     bordercolor="#666666"
     borderopacity="1.0"
     inkscape:pageopacity="0.0"
     inkscape:pageshadow="2"
     inkscape:zoom="1"
     inkscape:cx="79"
     inkscape:cy="176.5"
     inkscape:document-units="mm"
     inkscape:current-layer="layer1"
     showgrid="false"
     inkscape:window-width="2560"
     inkscape:window-height="1351"
     inkscape:window-x="-9"
     inkscape:window-y="-9"
     inkscape:window-maximized="1"
     inkscape:pagecheckerboard="0"
     fit-margin-top="0"
     fit-margin-left="0"
     fit-margin-right="0"
     fit-margin-bottom="0"
     units="px" />
  <metadata
     id="metadata5">
    <rdf:RDF>
      <cc:Work
         rdf:about="">
        <dc:format>image/svg+xml</dc:format>
        <dc:type
           rdf:resource="http://purl.org/dc/dcmitype/StillImage" />
      </cc:Work>
    </rdf:RDF>
  </metadata>
  <g
     inkscape:label="Calque 1"
     inkscape:groupmode="layer"
     id="layer1"
     transform="translate(-57.887492,-101.36131)">
    <g
       id="g1864"
       transform="matrix(2.9904859,0,0,2.9904859,-115.22424,-201.75826)">
      <g
         aria-label="Joseph "
         id="text817"
         style="font-size:10.5833px;line-height:1.25;letter-spacing:0px;word-spacing:0px;stroke-width:0.264583">
        <path
           d="m 79.756893,104.20611 q 0.127,0.0762 0.0508,0.2286 -0.0508,0.1524 -0.2032,0.3302 -0.127,0.1524 -0.3048,0.3048 -0.1778,0.127 -0.254,0.1778 -0.5334,0.1524 -0.9398,0.4318 -0.4064,0.2794 -0.762,0.8128 -0.3302,0.5334 -0.6604,1.397 -0.3048,0.8636 -0.635,2.1844 -0.8382,3.2512 -2.0574,5.7912 0.2794,-0.0762 0.4826,-0.1524 0.2286,-0.0762 0.3302,-0.1524 0.1016,0 0.127,0.0762 0.0254,0.0508 -0.0254,0.1016 -0.1778,0.127 -0.4572,0.2286 -0.254,0.1016 -0.5842,0.1778 -1.143,2.3368 -2.54,4.064 -1.3716,1.7018 -2.921,2.8194 -1.5494,1.143 -3.2258,1.6764 -1.6764,0.5588 -3.3528,0.5588 -1.9304,0 -2.9464,-0.7874 -0.9906,-0.762 -0.9906,-2.3622 0,-0.8636 0.4572,-1.8288 0.4572,-0.9652 1.397,-1.8288 0.9398,-0.8636 2.3368,-1.5494 1.4224,-0.7112 3.3274,-1.0414 0.127,0 0.127,0.1016 0,0.1016 -0.127,0.1524 -3.0734,0.5842 -4.5974,2.032 -1.524,1.4478 -1.524,3.2766 0,1.5494 0.8636,2.3368 0.8636,0.7874 2.54,0.7874 1.4986,0 2.8702,-0.4572 1.397,-0.4572 2.6416,-1.4478 1.2446,-0.9906 2.3368,-2.5654 1.1176,-1.5748 2.0828,-3.81 -1.3208,-0.0508 -2.159,-0.9398 -0.8382,-0.9144 -0.8382,-2.4384 0,-1.5748 0.8382,-3.1242 0.8382,-1.5494 2.2352,-2.794 1.397,-1.2446 3.2258,-2.0066 1.8542,-0.762 3.8354,-0.762 z m -5.2832,6.4262 q 0.5588,-2.1844 1.4986,-3.4036 0.9398,-1.2192 1.9812,-1.8034 -1.7526,0.2032 -3.2258,0.9398 -1.4732,0.7366 -2.54,1.778 -1.0668,1.016 -1.651,2.2352 -0.5842,1.2192 -0.5842,2.413 0,1.4732 0.7366,2.3114 0.7366,0.8382 2.032,0.9144 0.9398,-2.3114 1.7526,-5.3848 z"
           style="font-weight:bold;font-size:25.4px;font-family:Tangerine;-inkscape-font-specification:'Tangerine Bold';fill:#36a786"
           id="path1771" />
        <path
           d="m 79.553688,114.06131 q 0.889,0 1.3208,0.5334 0.4318,0.5334 0.4318,1.2446 0,0.9906 -0.4064,1.8542 -0.381,0.8382 -0.9652,1.4986 -0.5588,0.635 -1.2192,1.016 -0.6604,0.3556 -1.1938,0.3556 -0.8636,0 -1.3208,-0.508 -0.4318,-0.5334 -0.4318,-1.3462 0,-0.7366 0.3048,-1.5494 0.3302,-0.8128 0.8382,-1.4986 0.5334,-0.6858 1.2192,-1.143 0.6858,-0.4572 1.4224,-0.4572 z m -1.397,5.715 q 0.7874,0 1.3208,-0.8128 0.5588,-0.8382 0.5588,-2.286 0,-0.762 -0.3048,-1.27 -0.3048,-0.508 -0.889,-0.508 -0.8128,0 -1.3208,0.7874 -0.508,0.7874 -0.508,2.3114 0,0.889 0.3048,1.3462 0.3302,0.4318 0.8382,0.4318 z"
           style="font-weight:bold;font-size:25.4px;font-family:Tangerine;-inkscape-font-specification:'Tangerine Bold';fill:#36a786"
           id="path1773" />
        <path
           d="m 85.497272,114.06131 q 0.5588,0 0.889,0.1524 0.3556,0.1524 0.3556,0.381 0,0.2794 -0.1524,0.635 -0.127,0.3556 -0.254,0.5842 -0.0508,0.0508 -0.127,0.0254 -0.0762,-0.0508 -0.0762,-0.1524 0.0762,-0.1778 0.0762,-0.508 0,-0.3556 -0.2032,-0.5842 -0.1778,-0.2286 -0.508,-0.2286 -0.4318,0 -0.7112,0.2794 -0.254,0.254 -0.254,0.7366 0,0.4064 0.2032,0.7874 0.2286,0.3556 0.4826,0.7366 0.2794,0.3556 0.508,0.7874 0.2286,0.4064 0.2286,0.9398 0,0.9144 -0.7366,1.4224 -0.7366,0.508 -1.9304,0.508 -0.8636,0 -1.3716,-0.2794 -0.4826,-0.2794 -0.4826,-0.6096 0,-0.1016 0.0762,-0.2794 0.0762,-0.1778 0.2032,-0.381 0.127,-0.2032 0.2794,-0.4064 0.1524,-0.2032 0.3302,-0.3302 0.0762,-0.0508 0.127,0.0254 0.0762,0.0762 0.0254,0.1524 -0.1524,0.1524 -0.2286,0.3302 -0.0762,0.1524 -0.0762,0.4318 0,0.4572 0.3048,0.762 0.3048,0.2794 0.7874,0.2794 0.6604,0 1.016,-0.3556 0.381,-0.381 0.381,-0.9144 0,-0.4826 -0.2286,-0.889 -0.2032,-0.4318 -0.4572,-0.8128 -0.254,-0.4064 -0.4826,-0.8128 -0.2032,-0.4064 -0.2032,-0.8636 0,-0.6604 0.5588,-1.0922 0.5588,-0.4572 1.651,-0.4572 z"
           style="font-weight:bold;font-size:25.4px;font-family:Tangerine;-inkscape-font-specification:'Tangerine Bold';fill:#36a786"
           id="path1775" />
        <path
           d="m 92.812456,115.33131 q 0,1.4478 -3.8354,1.9812 -0.0254,0.254 -0.0508,0.508 0,0.254 0,0.5334 0,0.6604 0.3048,1.016 0.3048,0.3556 0.9652,0.3556 0.4826,0 0.9906,-0.2794 0.508,-0.2794 0.8128,-0.7112 0.1016,-0.0508 0.1524,0.0508 0.0508,0.0762 0.0254,0.1778 -0.508,0.6604 -1.2954,1.143 -0.762,0.4572 -1.651,0.4572 -0.889,0 -1.2954,-0.4318 -0.381,-0.4572 -0.381,-1.27 0,-0.7874 0.3302,-1.6256 0.3302,-0.8636 0.8382,-1.5748 0.5334,-0.7112 1.1938,-1.143 0.6858,-0.4572 1.3716,-0.4572 0.6858,0 1.0922,0.4064 0.4318,0.381 0.4318,0.8636 z m -2.2098,-0.6096 q -0.5842,0 -1.016,0.5588 -0.4064,0.5334 -0.5588,1.6764 1.2192,-0.127 1.8034,-0.4572 0.5842,-0.3556 0.5842,-0.8636 0,-0.381 -0.2286,-0.635 -0.2286,-0.2794 -0.5842,-0.2794 z"
           style="font-weight:bold;font-size:25.4px;font-family:Tangerine;-inkscape-font-specification:'Tangerine Bold';fill:#36a786"
           id="path1777" />
        <path
           d="m 98.806843,114.06131 q 0.5588,0 0.889,0.5588 0.355597,0.5334 0.355597,1.27 0,1.0414 -0.431797,1.905 -0.4064,0.8382 -1.0922,1.4732 -0.6858,0.6096 -1.5748,0.9652 -0.889,0.3302 -1.8034,0.3302 -0.4318,0 -0.7366,-0.1016 -0.4318,1.2446 -0.7874,2.667 -0.3302,1.4224 -0.3302,2.6416 0,0.5842 0.5588,0.4572 0.2032,-0.0254 0.381,-0.1016 0.2032,-0.0762 0.381,-0.2032 0.1016,0 0.1016,0.1016 0.0254,0.1016 -0.0254,0.2032 -0.1524,0.0762 -0.4572,0.1524 -0.2794,0.1016 -0.6096,0.1778 -0.3302,0.1016 -0.6604,0.1524 -0.3302,0.0508 -0.5588,0.0508 -0.2032,0 -0.3302,-0.1016 -0.127,-0.1016 -0.127,-0.3048 0,-1.2954 0.4318,-3.0226 0.4064,-1.7018 1.0668,-3.5306 -0.1524,-0.2032 -0.1778,-0.3302 -0.0254,-0.1016 0.381,-0.2286 0.3302,-0.9144 0.7112,-1.8288 0.381,-0.9144 0.762,-1.8034 0.4826,-1.0414 0.4318,-1.2954 -0.0254,-0.254 -0.3048,-0.1016 -0.381,0.2032 -0.8382,0.7112 -0.0508,0.0508 -0.127,-0.0254 -0.0508,-0.1016 -0.0254,-0.1524 0.1778,-0.2032 0.4572,-0.4318 0.2794,-0.254 0.5842,-0.4572 0.3302,-0.2032 0.635,-0.3302 0.3048,-0.1524 0.5334,-0.1524 0.2794,0 0.3556,0.254 0.1016,0.2286 -0.0254,0.508 -0.3302,0.889 -0.8636,2.0066 0.254,-0.3556 0.5842,-0.7112 0.3302,-0.381 0.6858,-0.6858 0.381,-0.3048 0.7874,-0.4826 0.4064,-0.2032 0.8128,-0.2032 z m -3.0226,5.9944 q 0.6096,0 1.143,-0.2286 0.5334,-0.254 0.9144,-0.7112 0.4064,-0.4826 0.635,-1.1684 0.254,-0.7112 0.254,-1.6256 0,-0.6096 -0.2286,-0.9906 -0.2286,-0.381 -0.6604,-0.381 -0.5842,0 -1.397,1.0414 -0.8128,1.0414 -1.4986,2.921 -0.0762,0.2032 -0.1524,0.4318 -0.0762,0.2032 -0.1524,0.4318 0.4064,0.2794 1.143,0.2794 z"
           style="font-weight:bold;font-size:25.4px;font-family:Tangerine;-inkscape-font-specification:'Tangerine Bold';fill:#36a786"
           id="path1779" />
        <path
           d="m 100.91505,120.33511 q 1.143,-4.3688 2.6162,-7.874 1.4986,-3.5052 3.1496,-5.969 1.651,-2.4638 3.3274,-3.7846 1.7018,-1.3462 3.2258,-1.3462 0.635,0 0.9906,0.3048 0.381,0.2794 0.508,0.7112 0.1524,0.4064 0.0508,0.889 -0.1016,0.4826 -0.381,0.8636 -0.0762,0.0762 -0.1524,0.0508 -0.0762,-0.0254 -0.0762,-0.127 0.127,-0.508 -0.2794,-0.9652 -0.4064,-0.4572 -1.2954,-0.4572 -1.3716,0 -2.6162,0.7366 -1.2192,0.7366 -2.3876,2.4638 -1.1684,1.7018 -2.286,4.5466 -1.1176,2.8194 -2.286,7.0358 0.381,-0.6858 0.8636,-1.2954 0.508,-0.6096 1.0922,-1.0668 0.5842,-0.4572 1.2446,-0.7112 0.6604,-0.2794 1.3716,-0.2794 0.3048,0 0.4318,0.1524 0.1524,0.1524 0.1524,0.3556 0,0.3302 -0.2286,0.7366 -0.5334,0.9398 -0.8636,1.9304 -0.3302,0.9906 -0.3302,1.8034 0,0.3556 0.0762,0.5842 0.0762,0.2286 0.2794,0.2286 0.254,0 0.5588,-0.254 0.3048,-0.2794 0.508,-0.6096 0.0762,-0.0508 0.1524,0.0254 0.0762,0.0508 0.0508,0.127 -0.3302,0.5588 -0.9398,0.9906 -0.5842,0.4318 -1.0668,0.4318 -0.4318,0 -0.7112,-0.2286 -0.2794,-0.254 -0.2794,-0.8382 0,-0.4572 0.0762,-0.9652 0.1016,-0.5334 0.2286,-1.0414 0.1524,-0.508 0.3302,-0.9906 0.2032,-0.508 0.4318,-0.9144 0.127,-0.3048 0.127,-0.4318 0,-0.2286 -0.254,-0.2286 -0.4826,0 -1.0414,0.381 -0.5588,0.3556 -1.0922,1.0414 -0.5334,0.6604 -1.0414,1.6002 -0.4826,0.9398 -0.8382,2.0828 -0.0508,0.1778 -0.4064,0.3556 -0.3556,0.1778 -0.7874,0.1778 -0.254,0 -0.2032,-0.2286 z"
           style="font-weight:bold;font-size:25.4px;font-family:Tangerine;-inkscape-font-specification:'Tangerine Bold';fill:#36a786"
           id="path1781" />
      </g>
      <g
         aria-label="LARMARANGE"
         id="text821"
         style="font-size:10.5833px;line-height:1.25;letter-spacing:0px;word-spacing:0px;stroke-width:0.264583">
        <path
           d="m 97.996044,129.23924 h 2.067056 v 0.36518 h -2.463242 v -5.01607 h 0.396186 z"
           style="font-weight:300;font-size:7.05556px;font-family:'Roboto Condensed';-inkscape-font-specification:'Roboto Condensed,  Light'"
           id="path1784" />
        <path
           d="m 103.21881,128.20226 h -1.88102 l -0.42719,1.40216 h -0.40997 l 1.59853,-5.01607 h 0.36518 l 1.59852,5.01607 h -0.40997 z m -1.76733,-0.36862 h 1.65364 l -0.82682,-2.69063 z"
           style="font-weight:300;font-size:7.05556px;font-family:'Roboto Condensed';-inkscape-font-specification:'Roboto Condensed,  Light'"
           id="path1786" />
        <path
           d="m 106.36763,127.51669 h -1.17133 v 2.08773 h -0.39619 v -5.01607 h 1.3746 q 0.68557,0 1.06109,0.39274 0.37896,0.3893 0.37896,1.08521 0,0.48576 -0.23427,0.85438 -0.23427,0.36519 -0.63045,0.50643 l 1.04386,2.13252 v 0.0448 h -0.4203 z m -1.17133,-0.36518 h 1.04731 q 0.44442,0 0.70969,-0.30317 0.26527,-0.30662 0.26527,-0.78204 0,-0.5271 -0.27561,-0.81649 -0.2756,-0.28939 -0.7717,-0.28939 h -0.97496 z"
           style="font-weight:300;font-size:7.05556px;font-family:'Roboto Condensed';-inkscape-font-specification:'Roboto Condensed,  Light'"
           id="path1788" />
        <path
           d="m 109.20639,124.58835 1.51929,4.41317 1.52618,-4.41317 h 0.52021 v 5.01607 h -0.39274 v -2.17386 l 0.0345,-2.18764 -1.53652,4.3615 h -0.30316 l -1.52963,-4.34083 0.0344,2.15319 v 2.18764 h -0.39274 v -5.01607 z"
           style="font-weight:300;font-size:7.05556px;font-family:'Roboto Condensed';-inkscape-font-specification:'Roboto Condensed,  Light'"
           id="path1790" />
        <path
           d="m 116.30329,128.20226 h -1.88102 l -0.42719,1.40216 h -0.40997 l 1.59853,-5.01607 h 0.36518 l 1.59852,5.01607 h -0.40996 z m -1.76733,-0.36862 h 1.65365 l -0.82683,-2.69063 z"
           style="font-weight:300;font-size:7.05556px;font-family:'Roboto Condensed';-inkscape-font-specification:'Roboto Condensed,  Light'"
           id="path1792" />
        <path
           d="m 119.45211,127.51669 h -1.17133 v 2.08773 h -0.39619 v -5.01607 h 1.3746 q 0.68557,0 1.06109,0.39274 0.37896,0.3893 0.37896,1.08521 0,0.48576 -0.23427,0.85438 -0.23426,0.36519 -0.63045,0.50643 l 1.04386,2.13252 v 0.0448 h -0.4203 z m -1.17133,-0.36518 h 1.04731 q 0.44442,0 0.70969,-0.30317 0.26527,-0.30662 0.26527,-0.78204 0,-0.5271 -0.27561,-0.81649 -0.2756,-0.28939 -0.7717,-0.28939 h -0.97496 z"
           style="font-weight:300;font-size:7.05556px;font-family:'Roboto Condensed';-inkscape-font-specification:'Roboto Condensed,  Light'"
           id="path1794" />
        <path
           d="m 124.05132,128.20226 h -1.88103 l -0.42719,1.40216 h -0.40996 l 1.59852,-5.01607 h 0.36518 l 1.59853,5.01607 h -0.40997 z m -1.76734,-0.36862 h 1.65365 l -0.82682,-2.69063 z"
           style="font-weight:300;font-size:7.05556px;font-family:'Roboto Condensed';-inkscape-font-specification:'Roboto Condensed,  Light'"
           id="path1796" />
        <path
           d="m 128.79522,129.60442 h -0.39274 l -2.36679,-4.27193 v 4.27193 h -0.39618 v -5.01607 h 0.39618 l 2.37023,4.27881 v -4.27881 h 0.3893 z"
           style="font-weight:300;font-size:7.05556px;font-family:'Roboto Condensed';-inkscape-font-specification:'Roboto Condensed,  Light'"
           id="path1798" />
        <path
           d="m 133.04302,129.02219 q -0.25149,0.32384 -0.63389,0.48921 -0.38241,0.16192 -0.83716,0.16192 -0.77171,0 -1.21268,-0.51677 -0.44097,-0.51676 -0.4582,-1.43316 v -1.21956 q 0,-0.96118 0.41686,-1.47106 0.4203,-0.51332 1.19545,-0.51332 0.69246,0 1.08521,0.38241 0.39274,0.3824 0.44097,1.10243 h -0.39274 q -0.062,-0.57878 -0.34107,-0.84405 -0.27561,-0.26872 -0.78893,-0.26872 -0.61322,0 -0.91984,0.40997 -0.30316,0.40652 -0.30316,1.19545 v 1.15755 q 0,0.78548 0.33417,1.21957 0.33762,0.43408 0.94396,0.43408 0.65801,0 1.07487,-0.41686 v -1.30569 h -1.09899 v -0.36863 h 1.49517 z"
           style="font-weight:300;font-size:7.05556px;font-family:'Roboto Condensed';-inkscape-font-specification:'Roboto Condensed,  Light'"
           id="path1800" />
        <path
           d="m 136.51224,127.20318 h -1.94648 v 2.03606 h 2.23931 v 0.36518 h -2.63205 v -5.01607 h 2.61483 v 0.37207 h -2.22209 v 1.87758 h 1.94648 z"
           style="font-weight:300;font-size:7.05556px;font-family:'Roboto Condensed';-inkscape-font-specification:'Roboto Condensed,  Light'"
           id="path1802" />
      </g>
    </g>
  </g>
</svg>
