<?xml version="1.0" standalone="no"?>
<!DOCTYPE svg PUBLIC "-//W3C//DTD SVG 20010904//EN"
 "http://www.w3.org/TR/2001/REC-SVG-20010904/DTD/svg10.dtd">
<svg version="1.0" xmlns="http://www.w3.org/2000/svg"
 width="700.000000pt" height="700.000000pt" viewBox="0 0 700.000000 700.000000"
 preserveAspectRatio="xMidYMid meet">
<metadata>
Created by potrace 1.11, written by Peter Selinger 2001-2013
</metadata>
<g transform="translate(0.000000,700.000000) scale(0.100000,-0.100000)"
fill="#000000" stroke="none">
<path d="M6547 6594 c-1 -1 -43 -5 -94 -8 -50 -4 -102 -9 -115 -11 -13 -2 -45
-6 -72 -10 -27 -3 -52 -8 -55 -9 -3 -2 -26 -7 -51 -10 -72 -10 -306 -72 -418
-111 -314 -109 -681 -305 -917 -490 -451 -352 -773 -758 -960 -1209 -41 -99
-101 -303 -111 -373 -3 -26 -8 -50 -9 -53 -7 -12 -18 -171 -19 -260 0 -273 63
-488 196 -665 137 -181 367 -307 605 -330 37 -4 70 -9 71 -10 8 -7 -180 -403
-275 -580 -210 -390 -467 -751 -728 -1023 -322 -335 -720 -593 -1075 -697 -25
-7 -85 -25 -133 -39 -49 -15 -104 -28 -123 -31 -19 -2 -38 -6 -42 -9 -4 -2
-28 -7 -52 -11 -25 -3 -52 -8 -60 -10 -8 -2 -44 -6 -80 -10 -36 -3 -78 -8 -95
-12 -16 -3 -106 -7 -200 -8 -432 -6 -704 94 -883 322 -76 97 -143 275 -159
418 -9 81 -9 255 0 335 11 93 44 211 88 314 38 89 114 223 153 270 12 14 32
40 46 58 65 85 236 244 345 319 124 86 317 189 440 234 28 10 55 22 60 25 18
13 292 100 360 114 6 2 28 8 50 14 22 6 53 13 68 16 171 30 234 58 211 94 -14
22 -31 22 -124 1 -41 -10 -93 -20 -114 -23 -62 -10 -340 -91 -461 -134 -524
-188 -1019 -536 -1269 -891 -137 -194 -232 -421 -265 -636 -13 -87 -6 -287 14
-380 84 -397 386 -620 910 -672 129 -13 568 -4 595 12 3 1 32 6 65 10 33 3 90
13 127 21 37 7 81 16 97 19 51 9 338 94 434 129 371 135 710 336 1075 637 209
174 567 560 761 822 170 230 380 571 531 862 l82 160 82 23 c98 28 221 86 230
108 7 19 -9 43 -27 40 -7 -2 -33 -12 -59 -24 -39 -17 -171 -62 -184 -62 -2 0
15 39 38 88 168 361 350 858 473 1287 54 192 144 520 151 555 6 30 10 43 69
235 93 302 215 560 325 688 98 116 244 212 378 252 97 29 239 163 273 257 19
54 6 63 -92 64 -44 0 -80 -1 -82 -2z m-387 -358 c0 -2 -17 -15 -37 -27 -126
-76 -341 -271 -463 -418 -176 -213 -298 -437 -405 -742 -25 -74 -87 -280 -136
-459 -144 -516 -271 -913 -406 -1265 -83 -217 -74 -203 -120 -199 -402 40
-665 280 -748 684 -26 124 -26 391 0 520 2 14 7 39 11 55 22 110 106 344 157
435 61 111 86 153 138 230 165 247 457 533 709 696 25 16 47 31 50 35 10 11
179 109 283 163 246 128 516 217 822 271 150 27 145 26 145 21z"/>
</g>
</svg>
