<?xml version="1.0" encoding="UTF-8" standalone="no"?>
<!-- Created with Inkscape (http://www.inkscape.org/) -->

<svg
   width="26.458334mm"
   height="26.458334mm"
   viewBox="0 0 93.750004 93.750002"
   id="svg5998"
   version="1.1"
   inkscape:version="1.2.2 (732a01da63, 2022-12-09)"
   sodipodi:docname="logo_ceped_favicon.svg"
   inkscape:export-filename="C:\Users\LARMARANGE Joseph\Dropbox\Recherche\CEPED\Ceped Identité visuelle 2016\Logo\Logo_Ceped_intitulé_droite_RVB.png"
   inkscape:export-xdpi="900"
   inkscape:export-ydpi="900"
   xml:space="preserve"
   xmlns:inkscape="http://www.inkscape.org/namespaces/inkscape"
   xmlns:sodipodi="http://sodipodi.sourceforge.net/DTD/sodipodi-0.dtd"
   xmlns="http://www.w3.org/2000/svg"
   xmlns:svg="http://www.w3.org/2000/svg"
   xmlns:rdf="http://www.w3.org/1999/02/22-rdf-syntax-ns#"
   xmlns:cc="http://creativecommons.org/ns#"
   xmlns:dc="http://purl.org/dc/elements/1.1/"><defs
     id="defs6000" /><sodipodi:namedview
     id="base"
     pagecolor="#ffffff"
     bordercolor="#666666"
     borderopacity="1.0"
     inkscape:pageopacity="0.0"
     inkscape:pageshadow="2"
     inkscape:zoom="0.70923549"
     inkscape:cx="89.533026"
     inkscape:cy="-191.75577"
     inkscape:document-units="px"
     inkscape:current-layer="g1617"
     showgrid="false"
     inkscape:window-width="1920"
     inkscape:window-height="1009"
     inkscape:window-x="-8"
     inkscape:window-y="-8"
     inkscape:window-maximized="1"
     showguides="false"
     inkscape:pagecheckerboard="0"
     fit-margin-top="0"
     fit-margin-left="0"
     fit-margin-right="0"
     fit-margin-bottom="0"
     inkscape:showpageshadow="2"
     inkscape:deskcolor="#d1d1d1" /><metadata
     id="metadata6003"><rdf:RDF><cc:Work
         rdf:about=""><dc:format>image/svg+xml</dc:format><dc:type
           rdf:resource="http://purl.org/dc/dcmitype/StillImage" /></cc:Work></rdf:RDF></metadata><g
     inkscape:label="Calque 1"
     inkscape:groupmode="layer"
     id="layer1"
     transform="translate(-546.25924,-1101.4922)"><g
       id="g4112"
       transform="translate(-359.29859,-86.841549)"><g
         id="g4110"
         style="fill:#c8102e;fill-opacity:1"
         transform="translate(-276.76601,11.269514)" /></g><g
       id="g1617"
       transform="translate(3.6460192,-179.64931)"
       inkscape:export-filename="logo_ceped_tutelles.png"
       inkscape:export-xdpi="900"
       inkscape:export-ydpi="900"><circle
         style="fill:#c8102e;fill-opacity:1;stroke-width:0.477597"
         id="circle1501"
         cx="589.48822"
         cy="1328.0165"
         r="46.875" /><path
         id="path1503"
         d="m 589.53417,1293.1175 c -3.73811,0 -6.72425,0.456 -8.99805,1.457 -2.16456,0.8933 -3.88101,1.9946 -5.10937,3.3594 l -0.008,0.012 -0.0117,0.01 c -1.12264,1.3208 -1.85917,2.7299 -2.14257,4.209 -3.2e-4,0 3.2e-4,0 0,0 -2.7e-4,10e-4 -0.002,0 -0.002,0 -0.24961,1.2497 -0.38281,2.2337 -0.38281,3.0254 v 2.3789 40.9687 2.2872 c 0,0.7938 0.13284,1.8048 0.38281,3.1171 h 0.002 v 0 c 0.28538,1.427 1.02335,2.8024 2.14257,4.1192 l 0.0117,0.01 0.008,0.012 c 1.22572,1.3619 2.93471,2.4941 5.0996,3.4492 l 0.0117,0.01 h 0.0117 c 2.26748,0.9337 5.24732,1.3574 8.98438,1.3574 3.73708,0 6.71494,-0.4237 8.98242,-1.3574 h 0.0117 l 0.0117,-0.01 c 2.16825,-0.9566 3.85559,-2.0922 5.02734,-3.4707 1.11923,-1.3167 1.85914,-2.6922 2.14453,-4.1191 0.25153,-1.2577 0.38477,-2.2805 0.38477,-3.125 v -3.3028 h -9.80664 v 2.0235 c 0,0.3568 -0.0737,0.8517 -0.23633,1.4531 -0.1189,0.3903 -0.38377,0.8132 -0.88867,1.2676 l -0.0195,0.018 -0.0195,0.018 c -0.41087,0.4108 -1.08762,0.8396 -2.02343,1.2285 -0.86549,0.3018 -2.15713,0.4863 -3.84375,0.4863 -1.55733,0 -2.77846,-0.1816 -3.6543,-0.4863 -0.85895,-0.3812 -1.49714,-0.7999 -1.91797,-1.2168 -0.44598,-0.5021 -0.71144,-0.9639 -0.8418,-1.3789 -0.1028,-0.5879 -0.1582,-1.1205 -0.1582,-1.5723 v -0.8242 -40.9668 -0.8242 c 0,-0.4582 0.0531,-0.9564 0.15625,-1.4883 0.13723,-0.4914 0.40443,-0.9826 0.86133,-1.4902 0.41601,-0.4623 1.02832,-0.8688 1.88867,-1.1914 l 0.0137,-0.01 0.0176,-0.01 c 0.8613,-0.3547 2.07646,-0.5645 3.63477,-0.5645 1.68629,0 2.97195,0.2151 3.82031,0.5645 l 0.0234,0.01 0.0273,0.01 c 0.93915,0.3314 1.59375,0.7304 1.99609,1.1328 l 0.0195,0.02 0.0195,0.018 c 0.49422,0.4448 0.7607,0.8797 0.88672,1.3418 l 0.004,0.012 0.004,0.012 c 0.15879,0.5293 0.23047,1.0114 0.23047,1.4472 v 2.0215 h 1.01562 8.79102 v -3.3965 c 0,-0.7917 -0.13321,-1.7737 -0.38282,-3.0234 h -0.002 c -0.28289,-1.4804 -1.02097,-2.8911 -2.14453,-4.2129 -1.17429,-1.3815 -2.86948,-2.4883 -5.03711,-3.3828 -2.2738,-1.001 -5.25796,-1.457 -8.99609,-1.457 z"
         style="font-style:normal;font-variant:normal;font-weight:600;font-stretch:normal;font-size:90px;line-height:125%;font-family:Aldo;-inkscape-font-specification:'Aldo Semi-Bold';letter-spacing:3px;word-spacing:0px;fill:#ffffff;fill-opacity:1;stroke:none;stroke-width:2;stroke-linecap:butt;stroke-linejoin:miter;stroke-miterlimit:4;stroke-dasharray:none;stroke-opacity:1"
         inkscape:connector-curvature="0" /></g></g></svg>
