<?xml version="1.0" encoding="UTF-8" standalone="no"?>
<svg
   version="1.1"
   x="0px"
   y="0px"
   viewBox="0 0 534.20002 534.09998"
   xml:space="preserve"
   id="svg84"
   sodipodi:docname="hal.svg"
   width="534.20001"
   height="534.09998"
   inkscape:version="1.2.2 (732a01da63, 2022-12-09)"
   xmlns:inkscape="http://www.inkscape.org/namespaces/inkscape"
   xmlns:sodipodi="http://sodipodi.sourceforge.net/DTD/sodipodi-0.dtd"
   xmlns="http://www.w3.org/2000/svg"
   xmlns:svg="http://www.w3.org/2000/svg"><defs
   id="defs88" /><sodipodi:namedview
   id="namedview86"
   pagecolor="#ffffff"
   bordercolor="#000000"
   borderopacity="0.25"
   inkscape:showpageshadow="2"
   inkscape:pageopacity="0.0"
   inkscape:pagecheckerboard="0"
   inkscape:deskcolor="#d1d1d1"
   showgrid="false"
   inkscape:zoom="0.73396246"
   inkscape:cx="778.65018"
   inkscape:cy="267.72486"
   inkscape:window-width="2560"
   inkscape:window-height="1351"
   inkscape:window-x="-9"
   inkscape:window-y="-9"
   inkscape:window-maximized="1"
   inkscape:current-layer="g81" />
<style
   type="text/css"
   id="style2">
	.st0{display:none;}
	.st1{display:inline;fill:#FFFFFF;}
	.st2{fill:#FF4600;}
	.st3{fill:#00005F;}
	.st4{fill:#CD3C1B;}
	.st5{fill:#A53232;}
	.st6{fill:#7D2D46;}
	.st7{fill:#64286E;}
	.st8{fill:#411489;}
	.st9{fill:#171775;}
</style>
<g
   id="Background"
   class="st0"
   transform="translate(-270.5,-273)">
	<rect
   x="-11.4"
   y="-10.5"
   class="st1"
   width="2121.1001"
   height="1101"
   id="rect4" />
</g>
<g
   id="Contenu"
   transform="translate(-270.5,-273)">
	<g
   id="g81">
		
		<g
   id="g79">
			<g
   id="g53">
				<path
   class="st2"
   d="m 688.9,391.5 c 10.7,10.8 24.9,16.7 40,16.8 0.1,0 0.1,0 0.2,0 13,0 25.2,-4.3 35.2,-12.3 -20.4,-32.1 -47.3,-59.6 -79,-80.5 -18.3,22.2 -17.1,55.2 3.6,76 z"
   id="path51" />
			</g>
			<g
   id="g57">
				<path
   class="st4"
   d="m 674.5,407.3 c -30.2,-30.1 -46.8,-70 -46.7,-112.3 0,-2.8 0.1,-5.5 0.2,-8.2 -18.7,-6.7 -38.4,-11.4 -58.8,-13.8 -0.7,7.2 -1.1,14.5 -1.2,21.8 -0.2,58.4 22.6,113.4 64.3,154.8 41.5,41.3 96.9,64.2 155.8,64.4 0.3,0 0.5,0 0.8,0 5.3,0 10.6,-0.2 15.8,-0.6 -2,-20.5 -6.3,-40.3 -12.6,-59.2 -42.5,0.9 -85.3,-14.8 -117.6,-46.9 z"
   id="path55" />
			</g>
			<g
   id="g61">
				<path
   class="st5"
   d="M 776.8,570.3 C 717.1,546.2 663.7,510.8 617.8,465.3 572,419.8 536.6,366.8 512.6,307.8 c -4.6,-11.3 -8.7,-22.7 -12.4,-34.2 -20.1,2.8 -39.5,7.8 -58,14.7 4.4,14.1 9.4,28.1 15,41.9 27,66.5 66.9,126.1 118.4,177.4 51.5,51.2 111.6,90.9 178.7,118 10.9,4.4 22,8.5 33.1,12.2 7.2,-18.4 12.4,-37.7 15.5,-57.8 -8.7,-2.9 -17.4,-6.2 -26.1,-9.7 z"
   id="path59" />
			</g>
			<g
   id="g65">
				<path
   class="st6"
   d="m 747.5,707.1 -376,-378.7 c -15.7,12.3 -30,26.4 -42.6,41.9 l 376.5,379.1 c 15.5,-12.5 29.7,-26.7 42.1,-42.3 z"
   id="path63" />
			</g>
			<g
   id="g69">
				<path
   class="st7"
   d="m 503.3,576.1 c -51.5,-51.2 -111.6,-90.9 -178.7,-118 -12.7,-5.1 -25.5,-9.7 -38.4,-13.9 -7,18.4 -12.1,37.8 -14.9,57.9 10.4,3.4 20.7,7.2 30.9,11.3 59.7,24.1 113.1,59.5 159,105 45.8,45.6 81.2,98.6 105.1,157.6 4,9.7 7.6,19.6 10.9,29.5 20.1,-3 39.4,-8.2 57.8,-15.4 -4,-12.3 -8.4,-24.5 -13.4,-36.6 C 594.6,687 554.8,627.3 503.3,576.1 Z"
   id="path67" />
			</g>
			<g
   id="g73">
				<path
   class="st8"
   d="m 446.7,634.1 c -41.5,-41.3 -96.9,-64.2 -155.8,-64.4 -6.9,0 -13.7,0.3 -20.4,0.9 2.3,20.5 7,40.2 13.6,59 2,-0.1 4,-0.1 6,-0.1 41.5,0 83,15.7 114.5,47 30.2,30.1 46.8,70 46.7,112.3 0,1.8 -0.1,3.7 -0.1,5.5 18.8,6.4 38.6,10.7 59,12.8 0.5,-6 0.8,-12 0.8,-18.1 0.1,-58.5 -22.7,-113.5 -64.3,-154.9 z"
   id="path71" />
			</g>
			<g
   id="g77">
				<path
   class="st9"
   d="m 390.2,692.2 c -20.8,-21 -54.2,-22.2 -76.5,-3.6 21.1,31.6 48.6,58.5 80.8,78.7 7.8,-9.9 12.1,-22.1 12.2,-34.9 0,-15.2 -5.9,-29.4 -16.5,-40.2 z"
   id="path75" />
			</g>
		</g>
	</g>
</g>
</svg>
