<?xml version="1.0" encoding="UTF-8" standalone="no"?>
<svg
   version="1.1"
   width="194"
   height="194"
   style="clip-rule:evenodd;fill-rule:evenodd;image-rendering:optimizeQuality;shape-rendering:geometricPrecision;text-rendering:geometricPrecision"
   id="svg436"
   sodipodi:docname="horizon.svg"
   inkscape:version="1.2.2 (732a01da63, 2022-12-09)"
   xmlns:inkscape="http://www.inkscape.org/namespaces/inkscape"
   xmlns:sodipodi="http://sodipodi.sourceforge.net/DTD/sodipodi-0.dtd"
   xmlns="http://www.w3.org/2000/svg"
   xmlns:svg="http://www.w3.org/2000/svg">
  <defs
     id="defs440" />
  <sodipodi:namedview
     id="namedview438"
     pagecolor="#ffffff"
     bordercolor="#000000"
     borderopacity="0.25"
     inkscape:showpageshadow="2"
     inkscape:pageopacity="0.0"
     inkscape:pagecheckerboard="0"
     inkscape:deskcolor="#d1d1d1"
     showgrid="false"
     inkscape:zoom="5.2938144"
     inkscape:cx="97.566699"
     inkscape:cy="97.566699"
     inkscape:window-width="2560"
     inkscape:window-height="1351"
     inkscape:window-x="-9"
     inkscape:window-y="-9"
     inkscape:window-maximized="1"
     inkscape:current-layer="svg436" />
  <g
     id="g422"
     style="fill:#445395;fill-opacity:1"
     transform="translate(0.5,0.5)">
    <path
       style="opacity:0.979;fill:#445395;fill-opacity:1"
       fill="#e74a2e"
       d="m 88.5,-0.5 c 5.3333,0 10.6667,0 16,0 8.391,1.21639 16.724,3.21639 25,6 1,37.3274 1.333,74.6607 1,112 -22.333,0 -44.6667,0 -67,0 -0.1667,-37.3348 0,-74.6682 0.5,-112 8.0721,-2.84307 16.2387,-4.843069 24.5,-6 z"
       id="path420" />
  </g>
  <g
     id="g426"
     style="fill:#445395;fill-opacity:1"
     transform="translate(0.5,0.5)">
    <path
       style="opacity:0.967;fill:#445395;fill-opacity:1"
       fill="#e74a2e"
       d="m -0.5,104.5 c 0,-5.3333 0,-10.6667 0,-16 3.65773,-31.993 18.9911,-56.6596 46,-74 1.1666,54.997 1.3333,109.997 0.5,165 -27.1978,-17.726 -42.69783,-42.726 -46.5,-75 z"
       id="path424" />
  </g>
  <g
     id="g430"
     style="fill:#445395;fill-opacity:1"
     transform="translate(0.5,0.5)">
    <path
       style="opacity:0.96;fill:#445395;fill-opacity:1"
       fill="#e74a2e"
       d="m 193.5,86.5 c 0,6.6667 0,13.3333 0,20 -4.153,30.316 -18.82,54.15 -44,71.5 -0.948,0.483 -1.948,0.649 -3,0.5 0,-54.667 0,-109.3333 0,-164 14.181,7.3444 25.348,18.011 33.5,32 6.838,12.6812 11.338,26.0146 13.5,40 z"
       id="path428" />
  </g>
  <g
     id="g434"
     style="fill:#445395;fill-opacity:1"
     transform="translate(0.5,0.5)">
    <path
       style="opacity:0.974;fill:#445395;fill-opacity:1"
       fill="#e74a2e"
       d="m 106.5,193.5 c -6.6667,0 -13.3333,0 -20,0 -7.5746,-1.517 -15.2412,-3.184 -23,-5 0,-19 0,-38 0,-57 22.3333,0 44.667,0 67,0 0.167,18.67 0,37.336 -0.5,56 -7.76,2.713 -15.594,4.713 -23.5,6 z"
       id="path432" />
  </g>
</svg>
