<?xml version="1.0" encoding="utf-8"?>
<!-- Svg Vector Icons : http://www.onlinewebfonts.com/icon -->
<!DOCTYPE svg PUBLIC "-//W3C//DTD SVG 1.1//EN" "http://www.w3.org/Graphics/SVG/1.1/DTD/svg11.dtd">
<svg version="1.1" xmlns="http://www.w3.org/2000/svg" xmlns:xlink="http://www.w3.org/1999/xlink" x="0px" y="0px" viewBox="0 0 1000 1000" enable-background="new 0 0 1000 1000" xml:space="preserve">
<metadata> Svg Vector Icons : http://www.onlinewebfonts.com/icon </metadata>
<g><g transform="translate(0.000000,511.000000) scale(0.100000,-0.100000)"><path d="M8833,4956.4c-853.6-116-1820.8-456.9-2655.8-934.8c-832.7-477.8-1544.8-1027.5-2326.5-1802.3l-450-443l-95.1,34.8c-136.9,48.7-417.5,48.7-563.7-2.3c-201.8-69.6-700.5-382.7-1319.8-825.8C781.9,526.1,248.4,57.6,146.4-137.3L100-225.4l51-48.7c97.4-99.7,635.5-85.8,1468.2,39.4c211.1,30.1,385,55.7,385,55.7c2.3,0,7-92.8,13.9-204.1c9.3-185.6,18.6-222.7,118.3-429.1c157.7-322.4,410.6-644.8,848.9-1085.5c714.4-712.1,1201.5-1013.6,1602.8-990.4c139.2,7,139.2,7,127.6-51c-58-289.9-132.2-937.1-143.8-1266.4c-16.2-466.2,2.3-566,106.7-566c211.1,0,869.8,765.4,1577.3,1832.4c336.3,505.7,456.9,735.3,487.1,923.2c23.2,146.1,7,324.7-41.8,452.3c-25.5,65-16.2,76.6,345.6,436.1c1653.8,1649.2,2637.3,3463,2827.5,5221.2c27.8,243.6,34.8,804.9,11.6,862.9c-11.6,32.5-69.6,37.1-412.9,34.8C9255.1,4988.8,8967.5,4974.9,8833,4956.4z M7478.4,2899c153.1-76.6,296.9-241.2,359.5-408.2c97.4-257.5,25.5-577.6-171.6-774.7c-285.3-285.3-763.1-287.6-1043.8-7c-48.7,46.4-113.7,139.2-148.5,206.4c-55.7,104.4-64.9,148.5-64.9,317.8c0,229.6,46.4,352.6,187.9,508c155.4,171.6,315.5,236.6,577.6,225C7320.6,2961.6,7385.6,2947.7,7478.4,2899z"/><path d="M1967.2-1684.4c-174-55.7-248.2-97.4-373.4-206.4c-222.7-199.5-313.1-561.3-292.3-1199.2c7-215.7,18.6-412.9,27.8-433.8c23.2-60.3,146.1-76.5,626.3-74.2c375.8,2.3,468.5,9.3,624,51c225,62.6,375.8,155.4,477.8,299.2c85.8,118.3,183.2,338.6,185.6,415.2c0,46.4-7,46.4-143.8,27.8c-146.1-23.2-844.3-9.3-939.4,18.6c-44.1,11.6-51,34.8-64.9,259.8c-9.3,136.9-11.6,392-4.6,568.3c7,174,9.3,317.8,9.3,315.5C2097.1-1642.6,2036.8-1661.2,1967.2-1684.4z"/></g></g>
</svg>